<svg width="557" height="411" viewBox="0 0 557 411" fill="none" xmlns="http://www.w3.org/2000/svg">
<g opacity="0.3" filter="url(#filter0_b_13252_2480)">
<path d="M131.107 409.449C106.716 409.449 84.7912 404.778 65.331 395.438C46.0005 385.967 30.562 372.993 19.0156 356.517C7.46922 340.041 1.30682 321.229 0.528408 300.082H58.9091C60.3362 317.207 67.9257 331.284 81.6776 342.311C95.4295 353.339 111.906 358.852 131.107 358.852C146.415 358.852 159.973 355.349 171.778 348.344C183.714 341.208 193.055 331.413 199.801 318.959C206.677 306.504 210.115 292.298 210.115 276.341C210.115 260.124 206.612 245.659 199.607 232.945C192.601 220.231 182.936 210.241 170.611 202.976C158.416 195.711 144.404 192.013 128.577 191.884C116.511 191.884 104.381 193.959 92.1861 198.111C79.991 202.262 70.1312 207.711 62.6065 214.457L7.53409 206.284L29.9134 5.45453H249.036V57.0241H79.9261L67.277 168.531H69.6122C77.3963 161.007 87.7102 154.714 100.554 149.655C113.527 144.595 127.409 142.065 142.199 142.065C166.459 142.065 188.06 147.839 207.001 159.385C226.072 170.931 241.057 186.694 251.955 206.673C262.982 226.523 268.431 249.356 268.301 275.173C268.431 300.991 262.593 324.018 250.787 344.257C239.111 364.496 222.894 380.453 202.136 392.129C181.509 403.676 157.832 409.449 131.107 409.449ZM410.131 410.616C379.384 410.487 353.113 402.378 331.317 386.291C309.522 370.204 292.851 346.787 281.304 316.04C269.758 285.293 263.985 248.253 263.985 204.922C263.985 161.72 269.758 124.811 281.304 94.1932C292.98 63.5757 309.716 40.2235 331.512 24.1364C353.437 8.04923 379.643 0.00566697 410.131 0.00566697C440.619 0.00566697 466.76 8.11409 488.556 24.3309C510.351 40.4181 527.022 63.7704 538.569 94.3878C550.245 124.875 556.083 161.72 556.083 204.922C556.083 248.383 550.31 285.487 538.763 316.234C527.217 346.852 510.546 370.269 488.75 386.486C466.955 402.573 440.748 410.616 410.131 410.616ZM410.131 358.658C437.116 358.658 458.198 345.49 473.377 319.153C488.685 292.817 496.34 254.74 496.34 204.922C496.34 171.839 492.837 143.882 485.831 121.048C478.955 98.0852 469.031 80.7007 456.057 68.8949C443.213 56.9593 427.905 50.9915 410.131 50.9915C383.276 50.9915 362.194 64.2244 346.885 90.6903C331.577 117.156 323.857 155.233 323.728 204.922C323.728 238.134 327.166 266.222 334.042 289.185C341.047 312.018 350.972 329.338 363.816 341.143C376.659 352.82 392.098 358.658 410.131 358.658Z" fill="#3C3C43" fill-opacity="0.18"/>
</g>
<defs>
<filter id="filter0_b_13252_2480" x="-64.6844" y="-65.2078" width="685.98" height="541.038" filterUnits="userSpaceOnUse" color-interpolation-filters="sRGB">
<feFlood flood-opacity="0" result="BackgroundImageFix"/>
<feGaussianBlur in="BackgroundImageFix" stdDeviation="32.6068"/>
<feComposite in2="SourceAlpha" operator="in" result="effect1_backgroundBlur_13252_2480"/>
<feBlend mode="normal" in="SourceGraphic" in2="effect1_backgroundBlur_13252_2480" result="shape"/>
</filter>
</defs>
</svg>
